<?xml version="1.0" encoding="UTF-8" standalone="no"?>
<svg
   width="48"
   height="48"
   version="1"
   id="svg12"
   sodipodi:docname="bluetooth-off.svg"
   inkscape:version="1.1.2 (0a00cf5339, 2022-02-04)"
   xmlns:inkscape="http://www.inkscape.org/namespaces/inkscape"
   xmlns:sodipodi="http://sodipodi.sourceforge.net/DTD/sodipodi-0.dtd"
   xmlns="http://www.w3.org/2000/svg"
   xmlns:svg="http://www.w3.org/2000/svg">
  <defs
     id="defs16" />
  <sodipodi:namedview
     id="namedview14"
     pagecolor="#ffffff"
     bordercolor="#666666"
     borderopacity="1.0"
     inkscape:pageshadow="2"
     inkscape:pageopacity="0.0"
     inkscape:pagecheckerboard="0"
     showgrid="false"
     inkscape:zoom="15.145833"
     inkscape:cx="11.191197"
     inkscape:cy="23.966988"
     inkscape:window-width="2560"
     inkscape:window-height="1387"
     inkscape:window-x="0"
     inkscape:window-y="0"
     inkscape:window-maximized="1"
     inkscape:current-layer="svg12" />
  <rect
     fill="#324090"
     width="40"
     height="28"
     x="-44"
     y="-38"
     rx="14"
     ry="14"
     transform="matrix(0,-1,-1,0,0,0)"
     id="rect2"
     style="fill:#616161;fill-opacity:0.80377817" />
  <path
     fill="none"
     stroke="#000"
     stroke-linecap="square"
     stroke-width="2"
     opacity=".2"
     d="m17 19 14 13-7 7v-27l7 7-14 13"
     id="path4" />
  <path
     fill="none"
     stroke="#fff"
     stroke-linecap="square"
     stroke-width="2"
     d="m17 18 14 13-7 7v-27l7 7-14 13"
     id="path6"
     style="stroke:#cbcbcb;stroke-opacity:1" />
  <path
     fill="#fff"
     opacity=".1"
     d="m24 4c-7.756 0-14 6.244-14 14v1c0-7.756 6.244-14 14-14s14 6.244 14 14v-1c0-7.756-6.244-14-14-14z"
     id="path8" />
  <path
     opacity=".2"
     d="m10 30v1c0 7.756 6.244 14 14 14s14-6.244 14-14v-1c0 7.756-6.244 14-14 14s-14-6.244-14-14z"
     id="path10" />
</svg>
