<?xml version="1.0" encoding="UTF-8" standalone="no"?>
<!-- Created with Inkscape (http://www.inkscape.org/) -->

<svg
   width="64"
   height="64"
   viewBox="0 0 16.933333 16.933333"
   version="1.1"
   id="svg5"
   sodipodi:docname="beeline_tv.svg"
   inkscape:version="1.1.2 (0a00cf5339, 2022-02-04)"
   xmlns:inkscape="http://www.inkscape.org/namespaces/inkscape"
   xmlns:sodipodi="http://sodipodi.sourceforge.net/DTD/sodipodi-0.dtd"
   xmlns:xlink="http://www.w3.org/1999/xlink"
   xmlns="http://www.w3.org/2000/svg"
   xmlns:svg="http://www.w3.org/2000/svg">
  <sodipodi:namedview
     id="namedview7"
     pagecolor="#ffffff"
     bordercolor="#666666"
     borderopacity="1.0"
     inkscape:pageshadow="2"
     inkscape:pageopacity="0.0"
     inkscape:pagecheckerboard="0"
     inkscape:document-units="px"
     showgrid="false"
     inkscape:lockguides="false"
     inkscape:zoom="12.443434"
     inkscape:cx="-6.2281841"
     inkscape:cy="35.922559"
     inkscape:window-width="2560"
     inkscape:window-height="1387"
     inkscape:window-x="0"
     inkscape:window-y="0"
     inkscape:window-maximized="1"
     inkscape:current-layer="layer1"
     showguides="true"
     inkscape:guide-bbox="true"
     units="px" />
  <defs
     id="defs2">
    <linearGradient
       inkscape:collect="always"
       id="linearGradient10769">
      <stop
         style="stop-color:#ffd91a;stop-opacity:1"
         offset="0"
         id="stop10765" />
      <stop
         style="stop-color:#fda902;stop-opacity:1"
         offset="1"
         id="stop10767" />
    </linearGradient>
    <linearGradient
       inkscape:collect="always"
       xlink:href="#linearGradient10769"
       id="linearGradient10771"
       x1="113.11359"
       y1="146.94214"
       x2="111.10081"
       y2="157.40967"
       gradientUnits="userSpaceOnUse" />
  </defs>
  <g
     inkscape:label="Layer 1"
     inkscape:groupmode="layer"
     id="layer1"
     style="display:inline">
    <path
       style="display:inline;opacity:0.200498;fill:#000000;fill-opacity:1;stroke-width:0.0289361"
       d="M 4.109006,16.093249 C 2.912662,15.918862 1.8857629,15.050768 1.4943005,13.882896 1.3202762,13.363716 1.3228835,13.442102 1.3229225,8.7324424 c 3.7e-5,-4.668507 -2.52e-4,-4.659328 0.1599196,-5.13491 0.4014886,-1.192125 1.4393192,-2.066186 2.6464615,-2.228851 0.458869,-0.06183 8.7619874,-0.06063 9.1981074,0.0013 1.218794,0.173165 2.245715,1.033335 2.640786,2.211973 0.174026,0.51918 0.171418,0.440794 0.17138,5.150453 -3e-5,4.6685076 2.18e-4,4.6593286 -0.159921,5.1349106 -0.403669,1.198602 -1.440529,2.06777 -2.659091,2.229041 -0.449596,0.0595 -8.8013483,0.05665 -9.211559,-0.0031 z"
       id="path26188"
       sodipodi:nodetypes="csscscsccscc" />
    <g
       id="g24034"
       transform="matrix(0.10937701,0,0,0.10933824,-2.1187236,-7.6145743)">
      <path
         id="path4210"
         style="display:inline;fill:url(#linearGradient10771);fill-opacity:1;stroke-width:0.264583"
         d="m 82.128906,84.183594 c -8.835397,0.0668 -17.674774,0.02602 -26.505859,0.335937 -8.429988,0.962988 -15.921863,6.807922 -19.438683,14.453786 -1.064123,2.307983 -1.914149,4.763393 -1.966061,7.330043 -0.369453,7.15075 -0.268077,14.31579 -0.314178,21.47358 -0.0038,16.88065 -0.05492,33.76172 0.05341,50.6421 0.0927,3.91906 -0.01742,7.86568 0.538888,11.75514 1.693315,7.52113 6.979826,14.13775 13.973903,17.39853 2.85863,1.3297 5.98089,2.21943 9.155696,2.13603 13.922865,0.29969 27.850532,0.25818 41.775926,0.28313 12.5393,-0.0341 25.08123,0.0145 37.61758,-0.2946 3.88082,-0.19818 7.6474,-1.61316 10.91773,-3.67339 5.57528,-3.55008 9.68545,-9.3516 11.14764,-15.79804 0.52345,-3.95296 0.42307,-7.95648 0.51245,-11.93555 0.10717,-17.06559 0.0608,-34.13185 0.0541,-51.1977 -0.0447,-6.90579 0.0562,-13.81949 -0.32181,-20.71753 -0.1152,-3.09184 -1.27745,-6.03041 -2.66755,-8.754277 -3.73611,-7.06875 -11.01564,-12.238705 -18.99859,-13.103171 -9.7115,-0.309034 -19.43044,-0.284367 -29.14594,-0.3357 -8.796252,-0.02821 -17.592412,-0.01707 -26.388674,0.0017 z" />
    </g>
    <path
       style="display:inline;fill:#fda902;stroke-width:0.0289342"
       d="M 5.5228473,13.358035 5.5240232,3.9628055 13.83646,8.8385367 C 11.213163,10.254413 5.5228473,13.358035 5.5228473,13.358035 Z M 10.822349,9.8074279 C 11.253604,9.5604831 11.643453,9.324037 11.688681,9.2819931 11.962783,9.0271858 11.981317,8.4829066 11.72463,8.2263105 11.673558,8.1752572 10.838201,7.6723363 9.8682803,7.1087086 6.9518547,5.4139528 7.1595442,5.5229412 6.9112487,5.5569617 6.5382587,5.6080675 6.3133269,5.8839891 6.3168074,6.286156 c 0.00199,0.230157 0.040711,0.3267092 0.1866147,0.4653501 0.099198,0.09426 1.0698203,0.664935 1.2251559,0.7203269 0.1124771,0.04011 2.1355109,1.1977063 2.1605375,1.2362776 0.033117,0.051042 -0.00177,0.090102 -0.1572054,0.1759701 -0.1222824,0.067556 -0.8245987,0.5001021 -0.9271797,0.5710364 -0.022162,0.015325 0.2402254,0.4431785 0.5615499,0.9156719 0.046302,0.06809 0.084188,0.13655 0.084188,0.152141 0,0.04391 0.5120353,-0.223137 1.3718807,-0.7155021 z"
       id="path4208"
       sodipodi:nodetypes="ccccssssscssssscss" />
    <path
       style="display:inline;fill:#242c33;fill-opacity:1;stroke-width:0.0289342"
       d="M 3.8448829,15.828663 C 2.6486925,15.654276 1.6219258,14.786182 1.2305138,13.618309 1.0565109,13.09913 1.0591189,13.177516 1.0591571,8.4678562 1.0591948,3.7993484 1.0589055,3.8085274 1.2190567,3.3329454 1.6204939,2.140821 2.65819,1.2667598 3.8651771,1.1040944 c 0.45881,-0.061834 8.7608609,-0.060628 9.1969239,0.00134 1.218637,0.1731655 2.245427,1.0333349 2.640446,2.2119738 0.174004,0.5191793 0.171396,0.4407936 0.171358,5.150453 -3e-5,4.6685078 2.19e-4,4.6593288 -0.1599,5.1349108 -0.403618,1.198602 -1.440344,2.06777 -2.65875,2.22904 -0.449537,0.0595 -8.8002141,0.05665 -9.2103721,-0.0031 z M 7.2655487,11.867284 C 7.4408678,11.793254 11.581146,9.3944617 11.68977,9.303981 11.852115,9.1687515 11.922235,8.9941055 11.921364,8.727165 11.92038,8.4421213 11.825921,8.2549528 11.609394,8.109358 11.399986,7.9685478 7.3527895,5.6360745 7.2259391,5.5830914 7.097373,5.5293932 6.8126152,5.5458049 6.6795683,5.6145808 6.6293001,5.6405661 6.5425675,5.7087681 6.4868292,5.7661389 6.2864735,5.9723661 6.2940096,5.8492283 6.3027177,8.7744363 l 0.00783,2.6313047 0.072478,0.140768 c 0.1680528,0.326397 0.544855,0.463355 0.88252,0.320775 z M 7.705362,9.9827102 C 7.6942557,9.971608 7.685169,9.4110177 7.685169,8.7369529 c 0,-0.9829464 0.0075,-1.2284479 0.037864,-1.2400968 C 7.754682,7.4847151 9.7840817,8.6257538 9.8689626,8.7034134 9.9179801,8.7482596 9.8065337,8.82101 8.7993337,9.4016387 7.7510963,10.005924 7.7363948,10.013733 7.705362,9.9827102 Z"
       id="path4206" />
    <path
       id="path4198"
       style="display:inline;fill:#121518;stroke-width:0.109358"
       d="m 30.666016,4.0019531 c -7.786473,0.00502 -15.23786,0.061528 -16.056641,0.171875 -4.561841,0.6147984 -8.4847101,3.918161 -10.0019531,8.4238279 -0.5514473,1.637568 -0.599205,1.909821 -0.6035157,15.259766 l 0.6328126,1.359375 c 1.7513714,3.76125 4.3308662,7.602173 7.2187502,11.097656 1.333405,1.613945 5.176505,5.455278 6.800781,6.798828 8.348912,6.905942 18.21759,11.168261 28.65625,12.375 0.429659,0.04966 1.313683,0.168563 2.345703,0.300781 4.467312,-0.715031 8.242031,-3.95102 9.732422,-8.376953 0.605174,-1.797475 0.605355,-1.763449 0.605469,-19.408203 9e-6,-1.184018 -0.0018,-2.09122 -0.002,-3.121094 l -0.841797,-0.310546 c 0,0 -24.549564,-11.577748 -28.128906,-23.3867191 z M 26.576172,20.980469 c 0.286882,0.0051 0.552155,0.04499 0.734375,0.121093 0.479434,0.200252 15.776896,9.016633 16.568359,9.548829 0.81837,0.550279 1.174016,1.256653 1.177735,2.333984 0.0033,1.008909 -0.261413,1.668584 -0.875,2.179687 -0.410548,0.341975 -16.05808,9.409655 -16.720703,9.689454 -1.276215,0.538885 -2.700778,0.02074 -3.335938,-1.212891 l -0.273438,-0.533203 -0.0293,-9.94336 c -0.03291,-11.055904 -0.06194,-10.591652 0.695312,-11.371093 0.210665,-0.216835 0.538526,-0.474054 0.728516,-0.572266 0.314284,-0.162463 0.851941,-0.248765 1.330078,-0.240234 z m 2.613281,7.353515 c -0.114761,0.04403 -0.142578,0.972427 -0.142578,4.6875 0,2.547647 0.0342,4.667024 0.07617,4.708985 0.117289,0.117251 0.172923,0.08665 4.134765,-2.197266 3.806741,-2.194502 4.228232,-2.469174 4.042969,-2.638672 -0.320809,-0.293516 -7.99171,-4.606434 -8.111328,-4.560547 z"
       transform="scale(0.26458333)" />
  </g>
</svg>
